<mxfile host="app.diagrams.net" modified="2023-11-20T04:29:03.108Z" agent="Mozilla/5.0 (Windows NT 10.0; Win64; x64) AppleWebKit/537.36 (KHTML, like Gecko) Chrome/119.0.0.0 Safari/537.36 Edg/119.0.0.0" version="22.1.3" etag="_yirzVtVjpw_yn6b5LVb" type="github">
  <diagram name="Page-1" id="jcpMSUe6fjEUut8TEJXF">
    <mxGraphModel>
      <root>
        <mxCell id="0" />
        <mxCell id="1" parent="0" />
      </root>
    </mxGraphModel>
  </diagram>
</mxfile>
